<?xml version="1.0" standalone="no"?>
<!DOCTYPE svg PUBLIC "-//W3C//DTD SVG 20010904//EN"
 "http://www.w3.org/TR/2001/REC-SVG-20010904/DTD/svg10.dtd">
<svg version="1.0" xmlns="http://www.w3.org/2000/svg"
 width="648.000000pt" height="648.000000pt" viewBox="0 0 648.000000 648.000000"
 preserveAspectRatio="xMidYMid meet">
<metadata>
Created by potrace 1.11, written by Peter Selinger 2001-2013
</metadata>
<g transform="translate(0.000000,648.000000) scale(0.100000,-0.100000)"
fill="#000000" stroke="none">
<path d="M2948 5782 c-12 -16 -11 -16 7 -2 19 14 19 14 6 -2 -7 -10 -17 -16
-21 -13 -5 3 -10 2 -13 -2 -2 -5 -2 -3 -1 4 2 7 -2 15 -8 19 -7 4 -8 3 -4 -4
4 -7 2 -12 -3 -12 -6 0 -11 -7 -11 -16 0 -14 -2 -15 -17 -3 -11 10 -14 10 -9
2 4 -7 2 -13 -3 -13 -6 0 -11 -8 -11 -17 0 -10 -4 -14 -8 -8 -4 6 -13 11 -21
13 -12 3 -12 1 0 -14 9 -12 9 -15 2 -10 -8 4 -13 2 -13 -4 0 -6 -4 -8 -10 -5
-5 3 -10 1 -10 -5 0 -6 -4 -9 -9 -5 -5 3 -12 1 -16 -5 -3 -5 -1 -10 4 -10 6 0
11 -4 11 -9 0 -6 -9 -8 -20 -6 -13 2 -20 -2 -20 -11 0 -9 -5 -12 -12 -8 -7 4
-8 3 -4 -4 4 -7 0 -12 -11 -13 -10 0 -13 -3 -5 -6 6 -2 12 -9 12 -14 0 -6 -4
-8 -9 -5 -5 3 -12 -1 -15 -10 -3 -8 -10 -13 -15 -10 -5 3 -12 -1 -15 -10 -3
-8 -11 -12 -17 -8 -8 4 -9 3 -5 -4 4 -6 14 -8 24 -5 9 3 -1 -6 -23 -22 -48
-33 -55 -40 -33 -32 15 5 16 3 6 -18 -6 -13 -14 -23 -17 -22 -3 1 -7 -2 -8 -6
-1 -5 -10 -15 -20 -24 -10 -8 -13 -12 -6 -9 6 4 15 2 18 -4 4 -6 3 -10 -2 -9
-22 4 -32 -2 -27 -16 4 -9 0 -15 -9 -15 -9 0 -19 -5 -23 -12 -5 -7 -2 -9 9 -5
11 4 14 2 10 -8 -3 -8 -8 -13 -12 -11 -3 2 -12 -2 -19 -10 -10 -11 -10 -14 0
-14 9 0 10 -3 2 -8 -16 -10 -34 -48 -34 -71 0 -11 -5 -23 -10 -26 -6 -4 -9 -1
-8 6 2 6 -3 13 -10 15 -7 1 -8 0 -2 -3 6 -3 6 -11 -1 -25 -6 -11 -8 -26 -5
-34 3 -8 1 -14 -5 -14 -5 0 -9 -8 -7 -17 2 -12 -3 -18 -14 -17 -10 1 -15 -2
-12 -8 3 -5 0 -17 -7 -26 -10 -12 -6 -11 10 3 l24 20 -14 -22 c-8 -13 -17 -23
-22 -23 -4 0 -6 -4 -3 -9 3 -5 -1 -14 -9 -21 -8 -7 -13 -24 -11 -41 3 -23 1
-27 -10 -19 -10 9 -11 6 -7 -11 5 -17 3 -20 -8 -14 -11 7 -11 5 1 -10 8 -10
10 -16 4 -12 -7 4 -17 0 -24 -8 -10 -12 -10 -18 0 -30 12 -15 4 -21 -23 -16
-5 1 -6 -2 -3 -7 10 -17 15 -62 5 -57 -5 4 -7 10 -4 15 3 5 1 11 -3 14 -5 3
-8 -13 -8 -35 1 -22 -3 -43 -8 -46 -5 -4 -6 -1 -1 7 6 9 4 11 -4 5 -8 -4 -10
-17 -7 -34 5 -19 4 -22 -4 -11 -8 13 -10 13 -11 -2 -1 -10 -2 -24 -3 -30 0 -7
-7 -14 -13 -14 -25 -3 -27 -4 -15 -16 15 -15 16 -31 0 -22 -8 5 -9 2 -5 -10 5
-14 3 -15 -12 -6 -10 5 -33 11 -50 12 -23 2 -30 6 -26 18 4 12 2 11 -8 -2 -12
-15 -14 -15 -26 4 -10 16 -15 17 -27 8 -8 -7 -14 -9 -14 -4 0 5 -11 14 -25 21
-14 6 -23 7 -19 2 3 -5 0 -9 -5 -9 -6 0 -11 5 -11 12 0 6 -3 8 -7 5 -3 -4 -14
0 -24 9 -10 9 -25 14 -33 11 -8 -3 -17 1 -20 9 -3 8 -10 14 -17 14 -6 0 -18 8
-27 18 -10 10 -15 13 -12 7 3 -6 -3 -2 -12 8 -10 11 -16 23 -13 27 3 5 -4 6
-15 3 -12 -3 -20 0 -20 6 0 7 -5 9 -12 5 -7 -4 -8 -3 -4 5 4 6 0 14 -8 17 -9
3 -13 11 -9 17 4 6 0 8 -11 4 -10 -4 -15 -3 -11 3 3 6 -1 13 -9 16 -9 3 -16
12 -16 19 0 7 -7 16 -16 19 -9 4 -14 13 -10 22 3 8 2 13 -3 10 -5 -3 -14 8
-21 24 -7 16 -17 27 -23 23 -6 -4 -8 2 -5 15 4 15 2 19 -8 15 -17 -6 -19 13
-1 21 6 3 3 4 -8 3 -12 -1 -19 3 -17 12 2 7 -5 22 -15 33 -13 15 -14 21 -5 27
9 5 4 12 -15 21 -15 7 -31 13 -35 12 -4 -1 -5 5 -1 14 5 15 7 15 15 0 5 -9 13
-16 18 -16 6 0 2 9 -7 20 -13 15 -20 17 -31 8 -11 -10 -17 -9 -26 3 -14 19
-56 32 -50 15 3 -7 -4 -12 -16 -12 -11 0 -20 4 -20 8 0 4 -5 8 -11 8 -5 0 -8
-4 -5 -8 3 -5 -4 -15 -14 -22 -14 -10 -16 -17 -9 -26 7 -8 6 -15 -2 -20 -7 -4
-9 -3 -6 3 4 6 0 14 -9 17 -9 3 -12 2 -9 -5 4 -5 1 -17 -7 -26 -7 -9 -8 -14
-3 -11 6 4 11 -2 11 -12 0 -15 -3 -17 -15 -7 -12 10 -13 9 -2 -10 9 -18 9 -23
-1 -23 -8 0 -5 -5 5 -11 14 -8 16 -14 6 -25 -6 -8 -9 -25 -7 -38 4 -19 1 -23
-11 -19 -13 4 -13 2 1 -7 10 -6 15 -17 11 -27 -5 -12 -3 -14 8 -8 12 8 12 6 0
-8 -10 -13 -10 -17 -1 -17 10 0 10 -3 0 -15 -10 -12 -10 -15 1 -15 12 0 12 -2
0 -9 -11 -7 -11 -9 0 -13 12 -4 11 -8 -1 -23 -9 -11 -10 -16 -2 -11 9 5 12 -3
12 -28 0 -22 5 -36 13 -36 8 0 7 -4 -3 -10 -13 -9 -13 -10 0 -10 12 0 13 -2 1
-9 -9 -6 -10 -10 -2 -12 7 -3 13 -19 13 -37 1 -17 6 -32 12 -32 6 0 4 -5 -4
-10 -12 -8 -12 -10 -1 -10 11 0 11 -3 1 -15 -11 -13 -10 -14 3 -10 8 4 18 1
23 -6 4 -8 3 -10 -4 -5 -7 4 -12 2 -12 -3 0 -6 5 -11 11 -11 8 0 8 -5 -1 -15
-9 -10 -9 -15 -1 -15 6 0 11 -9 11 -20 0 -11 6 -20 13 -20 9 0 9 -2 -1 -9 -11
-7 -10 -9 3 -15 9 -3 13 -10 10 -16 -3 -5 1 -10 9 -10 9 0 16 -5 16 -11 0 -5
-5 -7 -11 -3 -8 5 -8 1 0 -13 6 -11 7 -23 4 -27 -3 -3 -1 -6 6 -6 7 0 9 -4 6
-10 -3 -5 2 -10 12 -11 13 0 14 -2 4 -6 -10 -4 -8 -9 10 -19 19 -10 20 -13 7
-14 -10 0 -18 -4 -18 -9 0 -5 10 -6 23 -3 21 5 21 5 5 -12 -22 -21 -24 -33 -3
-16 14 11 14 10 6 -14 -9 -22 -8 -26 7 -26 15 0 15 -2 2 -10 -10 -7 -11 -10
-2 -10 8 0 11 -9 8 -25 -3 -15 -1 -23 5 -20 5 4 6 11 3 17 -5 7 -2 8 5 4 7 -5
10 -10 7 -13 -3 -3 -1 -15 5 -26 6 -10 7 -17 2 -14 -5 4 -10 0 -10 -8 0 -8 4
-12 9 -9 10 6 28 -37 20 -50 -3 -5 2 -7 10 -3 12 4 14 1 10 -15 -4 -17 -2 -20
13 -14 15 5 16 4 5 -9 -8 -10 -9 -15 -1 -15 6 0 11 -5 11 -11 0 -5 -6 -7 -12
-3 -9 5 -9 3 1 -9 7 -9 17 -15 21 -12 5 3 12 0 16 -6 4 -7 3 -9 -4 -5 -6 3
-13 2 -17 -4 -3 -5 1 -10 9 -10 9 0 15 -6 14 -12 -2 -7 3 -12 11 -10 12 3 12
0 1 -13 -11 -13 -10 -15 3 -9 12 4 14 1 10 -15 -3 -12 -1 -21 6 -21 6 0 11 -9
11 -20 0 -11 7 -20 16 -20 8 0 12 -4 9 -10 -8 -13 19 -52 30 -42 4 4 6 0 2
-10 -4 -10 1 -18 14 -21 12 -3 17 -11 13 -20 -3 -8 0 -18 7 -23 8 -5 10 -3 4
7 -5 8 -4 11 1 6 5 -5 10 -12 10 -15 6 -28 18 -51 24 -47 4 3 10 -4 13 -15 3
-14 10 -18 21 -14 10 4 16 2 14 -4 -3 -10 29 -52 90 -120 12 -14 21 -31 18
-38 -6 -15 17 -12 40 6 16 12 17 12 7 0 -7 -8 -13 -21 -13 -29 0 -14 1 -14 10
-1 5 8 10 10 10 4 0 -5 -6 -16 -12 -23 -8 -9 -8 -11 -2 -8 15 8 24 -72 10 -80
-5 -3 0 -12 10 -20 16 -12 17 -15 4 -23 -13 -9 -13 -11 -1 -19 12 -8 12 -12 2
-25 -11 -12 -11 -16 -1 -16 10 0 10 -3 0 -15 -9 -11 -9 -15 -1 -15 7 0 9 -5 5
-12 -10 -16 -12 -98 -2 -92 4 3 5 -2 2 -10 -3 -9 -11 -13 -18 -9 -6 4 -5 -1 3
-10 7 -9 10 -17 6 -17 -4 0 -1 -8 6 -17 8 -9 9 -14 3 -10 -12 7 -13 -68 -1
-80 4 -3 2 -12 -4 -20 -6 -7 -7 -13 -2 -13 5 0 10 -6 11 -12 0 -7 2 -30 3 -50
1 -21 6 -35 10 -33 9 6 6 -15 -4 -32 -6 -9 -2 -13 10 -14 10 0 13 -3 6 -6 -10
-3 -10 -10 -1 -26 6 -12 10 -23 9 -25 -6 -7 12 -62 19 -57 4 3 8 -1 7 -8 -1
-41 4 -58 16 -51 8 5 8 2 -2 -9 -9 -11 -10 -17 -2 -17 6 0 11 -11 11 -25 0
-14 6 -25 13 -25 8 0 7 -4 -3 -10 -12 -8 -12 -10 -1 -10 11 0 11 -3 0 -17 -12
-14 -12 -16 0 -9 9 6 12 5 9 -5 -3 -8 2 -23 11 -33 9 -11 10 -16 4 -12 -17 9
-17 -16 0 -33 10 -11 10 -13 0 -7 -7 4 -13 2 -13 -3 0 -6 5 -11 10 -11 16 0
12 -14 -15 -42 -17 -19 -31 -25 -46 -21 -15 4 -20 3 -15 -5 4 -7 3 -12 -3 -12
-5 0 -11 6 -14 13 -4 9 -7 10 -18 0 -7 -7 -21 -13 -32 -13 -12 0 -16 -4 -11
-12 6 -10 4 -10 -8 0 -12 9 -18 10 -23 2 -4 -6 -13 -9 -21 -6 -8 3 -14 1 -14
-5 0 -5 -12 -7 -26 -5 -20 4 -24 2 -20 -10 3 -9 1 -12 -4 -9 -6 3 -10 0 -10
-7 0 -9 -3 -9 -10 2 -9 13 -12 13 -20 -2 -11 -17 -48 -14 -63 6 -5 6 -5 0 -2
-13 6 -19 4 -23 -9 -18 -9 4 -16 1 -16 -6 0 -7 -3 -8 -8 -2 -11 15 -32 17 -29
2 1 -7 -9 -12 -26 -11 -20 0 -26 -4 -22 -14 4 -12 2 -12 -8 -4 -10 9 -17 8
-27 -1 -10 -10 -12 -9 -6 3 5 11 4 10 -6 -2 -10 -12 -18 -14 -31 -6 -10 5 -17
6 -16 1 3 -20 -2 -27 -11 -13 -8 13 -10 13 -10 -1 0 -12 -8 -16 -31 -14 -17 2
-33 -3 -35 -10 -3 -7 -18 -11 -34 -10 -16 1 -27 -1 -24 -6 3 -5 -2 -9 -11 -9
-10 0 -13 -5 -9 -12 4 -6 3 -8 -3 -5 -15 9 -74 -3 -67 -14 3 -5 -7 -4 -21 1
-14 5 -24 7 -21 2 2 -4 -7 -12 -20 -19 -17 -8 -24 -8 -24 0 0 6 -6 4 -12 -5
-16 -19 -52 -33 -42 -15 6 8 3 8 -9 -1 -9 -8 -22 -10 -28 -6 -8 5 -9 3 -4 -5
5 -9 1 -12 -11 -10 -11 1 -27 -1 -36 -5 -9 -4 -25 -9 -35 -11 -10 -1 -17 -8
-15 -16 2 -9 -1 -9 -14 2 -15 11 -16 12 -9 0 6 -11 1 -13 -23 -9 -26 4 -29 2
-20 -9 8 -11 7 -12 -6 -7 -9 3 -16 1 -16 -6 0 -6 -4 -8 -10 -5 -5 3 -10 1 -10
-5 0 -6 -4 -9 -9 -6 -5 4 -12 0 -14 -6 -4 -10 -6 -10 -6 0 -1 6 -6 12 -12 12
-5 0 -7 -5 -4 -10 3 -5 -1 -10 -9 -10 -9 0 -16 -6 -16 -12 0 -9 -4 -8 -10 2
-7 11 -10 11 -10 2 0 -8 -5 -10 -12 -6 -8 5 -9 2 -5 -10 5 -12 3 -15 -6 -9 -6
4 -18 8 -25 9 -11 2 -11 0 0 -14 10 -13 10 -14 0 -8 -7 4 -19 2 -27 -4 -8 -7
-15 -9 -15 -4 0 4 -7 -1 -15 -12 -9 -12 -14 -14 -15 -6 0 7 -5 10 -10 7 -6 -4
-8 -10 -5 -15 3 -5 0 -12 -6 -16 -7 -4 -9 -3 -5 4 3 6 2 13 -4 17 -9 6 -15 -8
-11 -29 1 -5 -6 -3 -15 5 -12 9 -15 9 -10 2 4 -7 2 -13 -3 -13 -6 0 -11 5 -11
12 0 6 -7 3 -15 -8 -8 -11 -14 -14 -15 -6 0 10 -3 10 -14 0 -8 -7 -11 -17 -8
-23 3 -5 -1 -5 -9 2 -11 9 -19 7 -35 -12 -12 -13 -19 -28 -15 -32 3 -4 2 -5
-3 -1 -5 4 -15 0 -22 -10 -7 -9 -16 -17 -21 -17 -17 0 -53 -32 -45 -41 4 -4
-1 -2 -11 5 -9 8 -20 11 -24 7 -3 -3 -2 -6 3 -6 5 0 10 -8 11 -19 1 -14 -4
-17 -23 -15 -13 1 -22 -2 -18 -7 3 -5 0 -9 -7 -9 -7 0 -9 -3 -6 -6 4 -4 13 -1
22 6 13 11 14 10 9 -4 -3 -9 -10 -16 -15 -16 -5 0 -9 -9 -9 -19 0 -11 -6 -26
-14 -34 -11 -11 -12 -17 -3 -27 9 -10 9 -11 -2 -5 -11 6 -13 3 -9 -13 4 -16 2
-19 -10 -15 -10 4 -13 2 -8 -5 4 -7 2 -12 -5 -12 -8 0 -7 -5 2 -17 13 -15 12
-15 -7 -5 -16 9 -21 8 -21 -3 0 -8 5 -11 10 -8 5 3 7 0 5 -8 -3 -8 -10 -13
-15 -12 -5 1 -10 -4 -10 -12 0 -8 4 -12 9 -9 5 4 4 -3 -3 -14 -7 -12 -18 -18
-24 -14 -5 3 -3 -3 5 -13 8 -10 10 -16 4 -12 -7 4 -14 0 -17 -8 -4 -9 -1 -12
9 -8 12 4 10 -3 -5 -31 l-21 -37 22 -10 c21 -8 20 -9 -5 -4 -22 4 -27 3 -21
-7 12 -19 14 -39 3 -32 -5 3 -6 11 -3 17 4 7 3 9 -1 4 -14 -12 -17 -49 -3 -41
7 5 8 3 4 -5 -5 -7 -14 -10 -22 -7 -8 3 -11 0 -7 -9 3 -8 10 -12 17 -9 6 3 3
-1 -6 -9 -10 -8 -18 -20 -18 -27 0 -7 -7 -18 -17 -25 -13 -9 -13 -14 -3 -20 9
-6 11 -4 5 5 -5 9 -4 11 4 6 6 -4 9 -12 5 -17 -3 -5 -9 -7 -14 -4 -5 3 -11 1
-15 -5 -3 -5 0 -10 7 -10 9 -1 7 -5 -4 -14 -12 -9 -14 -16 -7 -23 8 -8 7 -13
-2 -18 -8 -6 -10 -4 -4 6 5 8 4 11 -1 6 -12 -12 -12 -30 1 -40 6 -5 0 -7 -12
-4 -13 3 -26 0 -30 -5 -3 -6 -1 -8 5 -4 6 3 13 2 17 -4 3 -5 1 -10 -6 -10 -7
0 -9 -3 -6 -7 4 -3 0 -14 -9 -24 -10 -11 -12 -19 -5 -24 6 -3 11 -15 11 -26 0
-11 -4 -17 -10 -14 -5 3 -10 1 -10 -4 0 -6 6 -11 13 -11 8 0 9 -2 1 -8 -6 -4
-14 -17 -18 -29 -4 -12 -17 -25 -28 -29 -19 -6 -20 -7 -4 -16 9 -5 14 -14 11
-19 -4 -5 -10 -7 -15 -4 -5 3 -11 1 -15 -5 -3 -5 -1 -10 6 -10 8 0 8 -4 2 -13
-6 -6 -13 -25 -17 -40 -4 -15 -10 -26 -14 -23 -4 2 -9 -6 -10 -20 l-2 -24
3157 0 c2994 0 3156 1 3169 18 13 16 14 16 8 0 -3 -10 -2 -18 3 -18 5 0 9 11
9 25 0 28 -3 30 -26 12 -9 -6 -6 -2 7 10 15 14 18 23 10 26 -8 4 -8 6 2 6 11
1 11 4 0 18 -11 13 -11 15 -1 9 11 -7 11 -4 1 12 -11 17 -10 24 2 38 9 11 9
15 2 10 -9 -5 -13 0 -13 14 0 13 -4 19 -11 14 -8 -5 -8 -1 0 14 13 24 15 43 2
23 -6 -9 -10 -2 -13 23 -2 21 0 40 4 42 5 3 6 10 2 15 -4 6 -10 7 -17 0 -9 -7
-12 1 -12 27 0 27 4 36 15 34 11 -3 11 0 -3 15 -13 15 -14 22 -4 33 8 9 8 11
0 6 -6 -3 -14 -2 -18 4 -4 6 -11 7 -17 4 -7 -4 -8 -2 -4 5 4 6 12 9 17 6 5 -4
9 -1 9 4 0 6 -8 11 -17 11 -15 0 -14 2 3 15 10 8 14 14 9 13 -6 -2 -10 1 -10
7 0 5 5 9 10 7 6 -1 3 3 -6 10 -9 7 -15 21 -13 31 1 9 -3 17 -9 17 -7 0 -3 7
7 15 11 8 15 15 10 15 -6 0 -19 7 -30 16 -10 8 -13 12 -6 9 11 -6 12 -3 3 12
-6 11 -7 24 -3 28 4 5 1 5 -6 1 -7 -4 -9 -13 -5 -19 4 -7 0 -6 -10 2 -12 10
-14 18 -7 31 13 24 13 30 -1 30 -5 0 -7 -4 -4 -10 4 -6 -1 -7 -11 -3 -11 4
-13 8 -6 11 15 5 16 39 2 44 -6 2 -12 14 -13 27 -2 26 -41 73 -52 63 -3 -4 -3
1 1 11 6 16 -10 23 -39 18 -5 -1 -6 9 -2 21 3 13 3 18 -2 12 -8 -10 -55 -15
-48 -4 2 3 0 12 -6 20 -6 12 -9 12 -9 2 0 -11 -2 -11 -14 0 -25 24 -61 52 -63
50 -11 -9 -23 2 -23 21 0 18 -2 19 -10 7 -6 -10 -10 -11 -10 -2 0 6 -9 12 -20
12 -11 0 -20 5 -20 10 0 6 -11 10 -23 10 -13 0 -32 9 -42 20 -10 11 -24 20
-32 20 -7 0 -13 4 -13 9 0 5 -11 12 -25 15 -14 4 -25 13 -25 21 0 8 -3 14 -7
14 -22 -4 -33 2 -27 13 5 9 2 9 -9 -1 -13 -11 -17 -11 -17 -1 0 8 -3 10 -7 7
-3 -4 -15 1 -26 10 -11 10 -17 12 -13 5 12 -20 -4 -14 -26 10 -11 13 -17 17
-13 11 3 -7 1 -13 -4 -13 -6 0 -11 5 -11 10 0 6 -7 10 -15 10 -9 0 -27 7 -40
16 -13 9 -30 12 -36 8 -8 -4 -9 -3 -5 4 4 7 1 12 -8 12 -9 0 -16 6 -16 13 0 8
-4 7 -10 -3 -8 -13 -10 -13 -10 2 0 11 -5 15 -15 12 -8 -4 -15 -1 -15 6 0 7
-7 10 -15 6 -13 -5 -19 4 -17 25 1 3 -12 3 -29 1 -18 -3 -29 0 -29 7 0 7 -6
11 -12 10 -28 -3 -39 1 -32 14 5 8 3 8 -9 -2 -14 -11 -18 -11 -23 4 -4 10 -14
15 -25 12 -11 -3 -19 0 -19 7 0 7 -14 11 -33 11 -21 -1 -34 3 -34 11 0 7 7 10
16 7 14 -4 14 -3 1 5 -10 8 -18 8 -27 0 -9 -7 -13 -7 -13 0 0 6 -7 9 -15 5 -9
-3 -15 -2 -14 3 4 25 -3 26 -17 4 -14 -23 -14 -23 -9 -2 5 16 2 22 -10 22 -9
0 -14 -4 -11 -8 3 -5 -2 -9 -10 -9 -8 0 -13 6 -10 13 3 8 -3 10 -17 7 -18 -4
-19 -3 -7 6 8 6 10 11 4 11 -5 0 -15 -5 -22 -12 -9 -9 -12 -9 -12 2 0 7 -3 10
-6 7 -4 -3 -15 -2 -25 3 -12 7 -20 6 -25 -2 -5 -7 -3 -8 7 -3 8 5 10 4 6 0 -4
-5 -15 -10 -24 -11 -12 -2 -13 0 -4 9 13 13 15 31 2 22 -5 -3 -13 -1 -16 5 -5
8 -12 7 -22 -2 -23 -19 -43 -19 -35 0 5 15 4 15 -11 3 -15 -12 -17 -12 -11 2
5 13 0 15 -28 12 -19 -3 -28 -1 -20 3 18 12 -16 40 -45 37 -13 -1 -23 2 -23 6
0 5 -7 5 -17 2 -12 -5 -14 -3 -8 8 4 8 4 11 0 6 -5 -4 -18 -1 -31 7 -12 8 -25
12 -28 9 -10 -11 -37 -12 -30 -2 3 5 0 9 -5 9 -6 0 -11 -5 -11 -12 0 -6 -3 -8
-6 -5 -4 4 -1 14 7 24 8 9 9 14 3 10 -6 -3 -23 0 -38 8 -14 8 -24 10 -21 6 3
-5 -4 -7 -16 -4 -16 5 -18 8 -7 15 9 7 7 8 -10 5 -14 -3 -27 1 -35 13 -13 19
-16 20 -47 20 -11 0 -20 6 -20 14 0 19 -25 27 -39 13 -8 -8 -9 -5 -6 11 2 12
0 22 -6 22 -5 0 -9 -7 -9 -15 0 -8 -4 -15 -10 -15 -5 0 -7 7 -4 15 5 11 -1 15
-18 15 -38 0 -51 20 -31 44 10 12 11 15 3 9 -19 -18 -28 -16 -35 6 -4 13 -12
18 -21 14 -8 -3 -14 -2 -13 3 1 5 1 18 -1 29 l-1 20 -8 -20 c-5 -11 -5 -25 0
-30 4 -6 4 -17 0 -24 -6 -10 -10 -8 -16 6 -5 10 -7 25 -6 33 2 16 -34 60 -48
60 -5 0 -8 16 -7 36 1 22 -4 38 -11 41 -7 3 -13 9 -13 15 0 5 4 7 9 3 5 -3 13
0 17 6 4 7 3 9 -3 6 -6 -4 -13 0 -17 8 -3 8 0 15 6 15 7 0 7 4 -1 14 -7 8 -8
17 -3 20 11 6 9 36 -3 55 -6 11 -4 13 9 8 12 -5 15 -3 10 5 -10 17 -12 78 -2
78 4 0 8 5 8 11 0 5 -4 8 -8 5 -5 -3 -8 5 -7 16 1 12 8 24 16 26 11 3 11 2 1
-6 -11 -7 -11 -10 3 -16 9 -3 13 -11 9 -17 -5 -8 -3 -9 5 -5 7 5 10 14 7 22
-5 12 -2 12 15 3 11 -6 23 -8 27 -5 3 3 1 6 -5 6 -5 0 -10 7 -10 15 0 10 4 12
12 5 17 -14 27 0 13 17 -9 11 -7 15 10 20 12 3 19 9 16 14 -3 5 -9 7 -13 5 -4
-3 -8 1 -8 9 0 8 5 13 11 12 6 -1 10 3 9 10 -2 8 4 10 14 6 11 -4 13 -8 5 -11
-7 -2 -9 -8 -6 -14 3 -5 12 -1 20 10 9 14 21 18 35 15 17 -5 20 -3 14 8 -8 12
-6 12 8 0 13 -10 17 -10 17 -1 0 10 3 10 15 0 13 -11 14 -10 9 5 -5 11 -3 16
3 12 5 -3 22 0 37 8 14 8 24 10 21 5 -4 -6 -1 -10 4 -10 6 0 11 5 11 10 0 6 7
10 16 10 9 0 12 5 8 13 -4 6 -4 9 1 5 4 -4 15 -2 23 5 13 9 14 9 8 0 -4 -7 -2
-13 4 -13 6 0 13 6 16 14 3 8 12 12 20 9 8 -3 21 3 29 13 8 11 15 15 15 11 0
-4 9 -3 20 3 11 6 18 16 14 21 -4 7 3 6 16 -1 18 -10 21 -9 15 1 -6 9 -3 11 8
6 9 -3 19 -1 23 5 5 7 2 8 -7 4 -8 -4 -5 -1 5 8 10 8 24 13 29 9 7 -4 8 1 3
12 -5 15 -4 16 8 6 10 -8 16 -9 21 -1 3 6 11 8 16 5 5 -4 6 2 2 12 -3 10 -3
15 2 11 4 -4 14 0 22 10 10 11 12 12 8 2 -4 -9 0 -7 9 4 8 10 20 15 27 10 7
-4 10 -3 6 3 -5 9 25 43 39 43 9 0 34 28 34 39 0 5 5 13 12 17 7 4 8 3 4 -4
-10 -16 2 -15 19 2 8 7 11 16 8 20 -4 3 -1 6 6 6 7 0 10 4 6 9 -3 5 0 13 6 17
8 4 9 3 5 -4 -4 -7 -2 -12 3 -12 6 0 11 7 11 16 0 11 5 14 16 10 14 -5 15 -4
4 9 -10 12 -10 15 3 15 8 0 18 7 21 16 3 8 10 13 15 10 5 -3 8 2 7 12 0 9 4
16 11 15 7 -2 10 4 7 12 -4 8 -1 15 6 15 6 0 8 5 5 10 -3 6 2 10 12 11 10 0
13 3 6 6 -10 3 -10 7 0 18 7 7 16 10 21 7 5 -3 6 0 2 6 -3 6 -1 14 5 17 5 4 8
13 5 21 -3 8 -2 14 3 14 5 0 11 9 14 21 3 12 10 19 14 16 5 -3 8 7 7 24 -1 16
3 32 9 36 6 4 7 1 2 -7 -5 -8 -4 -11 3 -6 6 4 8 14 5 23 -3 9 0 21 8 27 8 6
14 22 14 36 1 19 5 24 19 22 18 -3 18 -2 3 13 -13 13 -14 20 -5 35 7 10 17 16
23 12 5 -3 4 2 -4 11 -10 13 -10 17 -1 17 7 0 10 6 7 14 -4 9 1 17 11 19 16 4
15 5 0 6 -10 0 -18 3 -18 5 0 11 28 55 32 51 2 -3 5 2 5 10 0 8 -4 12 -9 9 -4
-3 -5 2 -2 10 3 9 11 13 18 10 6 -3 2 2 -8 10 -11 9 -14 16 -8 16 7 0 12 7 12
16 0 9 5 12 13 8 9 -6 9 -4 1 7 -14 17 -15 50 -1 67 5 6 5 12 0 12 -11 0 -10
41 2 60 5 9 4 11 -3 6 -7 -4 -12 -1 -12 9 0 10 5 13 13 9 9 -6 9 -5 0 7 -10
12 -10 18 0 29 6 7 7 10 1 7 -7 -4 -11 7 -12 30 -1 20 -6 41 -11 46 -7 7 -7
16 -1 28 7 12 6 22 -3 31 -6 7 -12 24 -12 38 1 14 -6 31 -15 38 -13 12 -13 13
5 7 17 -5 17 -3 -5 21 -14 15 -18 23 -10 19 13 -8 13 -7 0 9 -8 10 -15 26 -15
35 0 9 -6 17 -12 17 -25 3 -25 4 -12 21 8 9 9 14 3 10 -7 -4 -17 5 -24 23 -7
17 -16 30 -21 30 -5 0 -9 6 -9 13 0 6 -8 21 -17 32 l-16 20 7 -20 c6 -19 6
-19 -9 -1 -8 10 -13 22 -10 25 2 4 -5 8 -17 8 -11 1 -28 12 -39 24 -10 12 -19
19 -19 14 0 -4 -7 -2 -15 5 -8 7 -12 16 -9 21 3 5 -3 6 -12 2 -13 -5 -15 -3
-9 7 6 10 4 12 -8 7 -11 -4 -17 -1 -17 9 0 8 -5 12 -10 9 -6 -4 -7 -11 -4 -17
4 -7 2 -8 -5 -4 -6 4 -9 12 -6 17 4 5 -5 9 -19 9 -13 0 -26 6 -29 13 -3 9 -8
8 -22 -3 -17 -14 -18 -13 -12 3 4 11 1 17 -9 17 -8 0 -12 -4 -9 -10 3 -6 -1
-7 -9 -4 -9 3 -14 9 -12 13 3 4 -13 7 -35 7 -32 0 -39 -3 -34 -15 4 -14 4 -14
-7 -1 -14 17 -45 20 -65 7 -8 -5 -13 -3 -13 4 0 7 -7 4 -16 -7 -8 -10 -13 -14
-10 -8 9 18 -21 25 -37 10 -10 -10 -18 -11 -32 -4 -13 8 -16 7 -11 -1 10 -15
-7 -14 -23 2 -11 10 -12 9 -6 -2 6 -11 4 -13 -7 -8 -9 3 -25 -1 -36 -8 -10 -8
-22 -11 -26 -7 -4 3 -11 0 -16 -8 -7 -11 -10 -12 -10 -2 0 10 -4 9 -16 -2 -8
-9 -19 -14 -24 -11 -4 3 -11 -2 -14 -11 -5 -13 -9 -14 -21 -4 -11 9 -15 9 -15
1 0 -7 -4 -9 -10 -6 -5 3 -10 1 -10 -6 0 -9 -3 -9 -14 0 -11 9 -16 9 -22 0 -5
-8 -3 -9 6 -4 10 6 11 4 4 -6 -5 -8 -9 -17 -9 -21 0 -3 -3 -10 -7 -14 -4 -3
-6 2 -4 13 6 27 -9 51 -17 29 -4 -9 -12 -16 -19 -16 -9 0 -9 3 2 10 11 7 12
12 3 21 -8 8 -9 19 -2 38 6 14 7 22 3 18 -4 -3 -13 5 -21 20 -7 14 -11 28 -8
31 3 3 -4 12 -15 19 -11 8 -18 18 -15 23 3 5 1 12 -5 15 -6 4 -8 15 -5 25 3
10 1 21 -5 25 -6 4 -9 14 -6 22 4 9 -3 23 -15 34 -15 13 -17 19 -8 19 12 0 12
2 0 9 -8 5 -11 16 -8 24 4 12 2 14 -10 10 -11 -4 -14 -2 -9 5 4 7 2 12 -4 12
-6 0 -8 5 -5 11 4 6 -2 13 -14 16 -11 3 -18 9 -15 14 3 5 0 9 -7 9 -7 0 -9 3
-6 7 4 3 -2 12 -13 20 -11 8 -20 21 -20 30 0 9 -8 22 -17 30 -10 8 -12 11 -4
7 10 -5 12 -3 7 5 -5 7 -13 10 -20 8 -8 -3 -11 5 -10 25 2 23 -1 27 -11 18
-11 -9 -12 -7 -8 11 4 13 2 20 -3 16 -6 -3 -16 4 -23 16 -11 18 -11 20 0 10
28 -27 27 -11 -1 18 -16 18 -30 37 -30 43 0 6 5 4 10 -4 8 -13 10 -12 10 3 0
15 -11 22 -32 18 -4 0 -6 12 -4 29 2 16 -1 27 -6 24 -5 -3 -23 9 -41 27 -18
17 -27 29 -20 25 6 -3 15 -1 19 5 4 7 3 9 -2 6 -6 -3 -16 -2 -24 3 -12 7 -12
11 1 27 13 17 13 17 -5 3 -18 -14 -19 -13 -13 2 4 13 2 15 -11 11 -15 -6 -15
-4 -4 9 12 14 10 16 -10 11 -23 -5 -23 -5 -3 10 20 16 19 16 -5 11 -20 -5 -22
-3 -10 5 13 10 13 11 0 12 -8 1 -19 1 -24 0 -5 -1 -3 5 4 14 7 9 9 15 4 14
-19 -3 -34 1 -34 12 0 5 4 8 8 5 5 -3 9 1 9 9 0 13 -3 13 -23 1 -20 -14 -22
-14 -17 4 6 23 -21 29 -31 8 -3 -7 -3 -2 0 11 5 20 3 23 -10 18 -10 -4 -15 -3
-12 2 9 14 -20 21 -33 8 -11 -11 -16 2 -12 26 1 5 -3 6 -9 2 -5 -3 -10 -14
-10 -23 -1 -16 -1 -16 -11 0 -6 11 -16 15 -26 11 -12 -5 -14 -3 -8 8 7 11 6
12 -6 2 -9 -7 -20 -9 -29 -3 -9 6 -20 4 -29 -3 -12 -9 -13 -9 -7 1 9 15 -6 16
-22 0 -9 -9 -13 -7 -18 5 -3 9 -10 14 -15 11 -5 -3 -6 -11 -2 -17 3 -7 -3 -3
-15 7 -12 11 -22 14 -22 8 0 -7 -10 -8 -29 -2 -16 4 -32 6 -35 2 -3 -3 -6 0
-6 7 0 7 -5 9 -12 5 -16 -10 -58 -11 -64 -2 -3 4 -10 8 -15 8 -6 0 -8 -4 -5
-8 3 -5 -1 -9 -9 -9 -8 0 -15 4 -15 8 0 4 -18 7 -40 6 -22 -2 -40 1 -40 5 0 4
-5 8 -11 8 -6 0 -8 -8 -5 -17 5 -15 4 -15 -9 1 -8 11 -15 15 -15 9 0 -6 -7
-14 -16 -17 -8 -3 -13 -2 -10 3 11 17 -23 20 -36 3z m-578 -876 c0 -2 -7 -6
-15 -10 -8 -3 -15 -1 -15 4 0 6 7 10 15 10 8 0 15 -2 15 -4z m-347 -1433 c-3
-7 -6 -13 -8 -13 -2 0 -5 6 -8 13 -3 8 1 14 8 14 7 0 11 -6 8 -14z m2067 -967
c0 -3 -4 -8 -10 -11 -5 -3 -10 -1 -10 4 0 6 5 11 10 11 6 0 10 -2 10 -4z m49
-120 c0 -6 -3 -6 -6 2 -2 6 -10 9 -15 6 -7 -4 -8 -2 -4 4 4 7 1 12 -9 12 -9 0
-13 5 -10 11 8 12 45 -18 44 -35z m71 -40 c0 -3 -4 -8 -10 -11 -5 -3 -10 -1
-10 4 0 6 5 11 10 11 6 0 10 -2 10 -4z m-2013 -17 c-9 -6 -14 -16 -11 -22 5
-8 2 -7 -7 1 -12 11 -12 14 1 22 8 5 20 10 25 10 6 -1 2 -5 -8 -11z m2161 -94
c-3 -3 -9 2 -12 12 -6 14 -5 15 5 6 7 -7 10 -15 7 -18z m387 -145 c3 -5 1 -10
-4 -10 -6 0 -11 5 -11 10 0 6 2 10 4 10 3 0 8 -4 11 -10z m140 -50 c3 -5 1
-10 -4 -10 -6 0 -11 5 -11 10 0 6 2 10 4 10 3 0 8 -4 11 -10z m1330 -640 c3
-5 1 -10 -4 -10 -6 0 -11 5 -11 10 0 6 2 10 4 10 3 0 8 -4 11 -10z m122 -376
c-3 -3 -12 -4 -19 -1 -8 3 -5 6 6 6 11 1 17 -2 13 -5z m8 -24 c3 -5 1 -10 -4
-10 -6 0 -11 5 -11 10 0 6 2 10 4 10 3 0 8 -4 11 -10z m-6159 -89 c0 -15 -3
-17 -13 -9 -7 6 -10 14 -7 19 9 15 20 10 20 -10z"/>
<path d="M5146 3558 c3 -5 10 -6 15 -3 13 9 11 12 -6 12 -8 0 -12 -4 -9 -9z"/>
<path d="M4150 2419 c0 -5 5 -7 10 -4 6 3 10 8 10 11 0 2 -4 4 -10 4 -5 0 -10
-5 -10 -11z"/>
<path d="M2149 2343 c-13 -16 -12 -17 4 -4 9 7 17 15 17 17 0 8 -8 3 -21 -13z"/>
<path d="M2110 2326 c0 -2 7 -7 16 -10 8 -3 12 -2 9 4 -6 10 -25 14 -25 6z"/>
<path d="M4247 2309 c7 -7 15 -10 18 -7 3 3 -2 9 -12 12 -14 6 -15 5 -6 -5z"/>
<path d="M4841 2054 c0 -11 3 -14 6 -6 3 7 2 16 -1 19 -3 4 -6 -2 -5 -13z"/>
<path d="M530 1739 c0 -5 5 -7 10 -4 6 3 10 8 10 11 0 2 -4 4 -10 4 -5 0 -10
-5 -10 -11z"/>
<path d="M5870 1661 c0 -7 -5 -9 -12 -5 -7 5 -8 3 -3 -5 5 -9 10 -10 18 -2 6
6 8 14 4 18 -4 3 -7 1 -7 -6z"/>
<path d="M385 1580 c-3 -6 1 -7 9 -4 18 7 21 14 7 14 -6 0 -13 -4 -16 -10z"/>
</g>
</svg>
